<?xml version="1.0" encoding="iso-8859-1"?>
<!-- Uploaded to: SVG Repo, www.svgrepo.com, Generator: SVG Repo Mixer Tools -->
<svg height="800px" width="800px" version="1.1" id="Layer_1" xmlns="http://www.w3.org/2000/svg" xmlns:xlink="http://www.w3.org/1999/xlink" 
	 viewBox="0 0 503.467 503.467" xml:space="preserve">
<g transform="translate(1 3)">
	<path style="fill:#80D6FA;" d="M173.933,274.333v51.2h102.4l5.12,50.347L293.4,496.2h64l-29.013-213.333l-0.853-8.533H173.933z
		 M412.013,282.867l0.853-8.533c32.427,0,54.613,5.12,68.267,14.507c11.947,8.533,17.067,20.48,17.067,36.693v136.533L447,479.133
		V496.2h-64L412.013,282.867z"/>
	<path style="fill:#E4F2DE;" d="M438.467,163.4v-17.067c0-4.267-3.413-8.533-8.533-8.533v-8.533
		c0-23.893-18.773-42.667-42.667-42.667h-34.133c-23.893,0-42.667,18.773-42.667,42.667v8.533c-5.12,0-8.533,4.267-8.533,8.533
		V163.4c0,4.267,3.413,8.533,8.533,8.533c0,17.067,8.533,34.133,8.533,34.133c8.533,17.067,17.92,34.133,51.2,34.133
		s42.667-17.067,51.2-34.133c0,0,8.533-17.067,8.533-34.133C435.053,171.933,438.467,167.667,438.467,163.4L438.467,163.4
		L438.467,163.4z M481.133,52.467v237.227c-13.653-10.24-35.84-15.36-68.267-14.507l-0.853,8.533h-33.28
		c0-4.267-3.413-8.533-8.533-8.533s-8.533,4.267-8.533,8.533h-33.28l-0.853-8.533h-153.6h-68.267c0,17.067,17.067,51.2,51.2,51.2
		h17.067h102.4l5.12,50.347l-5.12,0.853H54.467c-18.773,0-34.133-14.507-34.133-34.133V53.32h460.8V52.467z M498.2,19.187v33.28
		h-17.067h-460.8H3.267V18.333h247.467L498.2,19.187L498.2,19.187L498.2,19.187z"/>
	<path style="fill:#FFD0A1;" d="M173.933,274.333v51.2h-17.067c-34.133,0-51.2-34.133-51.2-51.2H173.933z M438.467,146.333V163.4
		c0,4.267-3.413,8.533-8.533,8.533c0,17.067-8.533,34.133-8.533,34.133c-8.533,17.067-17.92,34.133-51.2,34.133
		s-42.667-17.067-51.2-34.133c0,0-8.533-17.067-8.533-34.133c-5.12,0-8.533-4.267-8.533-8.533v-17.067
		c0-4.267,3.413-8.533,8.533-8.533v-8.533c0-23.893,18.773-42.667,42.667-42.667h34.133c23.893,0,42.667,18.773,42.667,42.667v8.533
		C435.053,137.8,438.467,142.067,438.467,146.333z"/>
	<path style="fill:#AAB1BA;" d="M370.2,291.4c5.12,0,8.533-4.267,8.533-8.533h33.28L383,496.2h-25.6l-29.013-213.333h33.28
		C361.667,287.133,365.08,291.4,370.2,291.4"/>
	<path style="fill:#E4F2DE;" d="M370.2,274.333c5.12,0,8.533,4.267,8.533,8.533c0,4.267-3.413,8.533-8.533,8.533
		s-8.533-4.267-8.533-8.533C361.667,278.6,365.08,274.333,370.2,274.333"/>
</g>
<path style="fill:#51565F;" d="M294.4,503.467c-2.56,0-4.267-1.707-4.267-4.267l-17.067-166.4h-115.2
	c-36.693,0-55.467-35.84-55.467-55.467c0-2.56,1.707-4.267,4.267-4.267h221.867c2.56,0,4.267,1.707,4.267,3.413l25.6,187.733
	c0,2.56-1.707,4.267-3.413,5.12c-2.56,0-4.267-1.707-5.12-3.413L325.12,281.6H179.2v42.667h98.133c2.56,0,4.267,1.707,4.267,4.267
	L298.667,499.2C298.667,500.907,296.96,503.467,294.4,503.467L294.4,503.467z M110.933,281.6
	c2.56,15.36,17.067,42.667,46.933,42.667h12.8V281.6H110.933z M448,503.467c-2.56,0-4.267-1.707-4.267-4.267V379.733
	c0-2.56,1.707-4.267,4.267-4.267s4.267,1.707,4.267,4.267V499.2C452.267,501.76,450.56,503.467,448,503.467z M388.267,469.333
	L388.267,469.333c-2.56,0-4.267-2.56-4.267-5.12l25.6-187.733c0-2.56,2.56-3.413,5.12-3.413c37.547,0,62.293,6.827,75.947,20.48
	c8.533,8.533,12.8,20.48,12.8,34.987v136.533c0,2.56-1.707,4.267-4.267,4.267c-2.56,0-4.267-1.707-4.267-4.267V328.533
	c0-11.947-3.413-21.333-10.24-29.013c-11.947-11.947-33.28-17.92-66.56-17.92l-24.747,184.32
	C392.533,467.627,389.973,469.333,388.267,469.333z M251.733,384H55.467c-21.333,0-38.4-17.067-38.4-38.4v-256
	c0-2.56,1.707-4.267,4.267-4.267S25.6,87.04,25.6,89.6v256c0,17.067,12.8,29.867,29.867,29.867h196.267
	c2.56,0,4.267,1.707,4.267,4.267C256,382.293,254.293,384,251.733,384z M371.2,366.933c-2.56,0-4.267-1.707-4.267-4.267v-64.853
	c-5.12-1.707-8.533-6.827-8.533-11.947c0-6.827,5.973-12.8,12.8-12.8s12.8,5.973,12.8,12.8c0,5.973-3.413,10.24-8.533,11.947v64.853
	C375.467,365.227,373.76,366.933,371.2,366.933z M371.2,281.6c-2.56,0-4.267,1.707-4.267,4.267c0,2.56,1.707,4.267,4.267,4.267
	s4.267-1.707,4.267-4.267C375.467,283.307,373.76,281.6,371.2,281.6z M482.133,264.533c-2.56,0-4.267-1.707-4.267-4.267v-204.8
	c0-2.56,1.707-4.267,4.267-4.267h12.8V25.6H8.533v25.6H448c2.56,0,4.267,1.707,4.267,4.267c0,2.56-1.707,4.267-4.267,4.267H4.267
	C1.707,59.733,0,58.027,0,55.467V21.333c0-2.56,1.707-4.267,4.267-4.267h243.2v-12.8c0-2.56,1.707-4.267,4.267-4.267
	C254.293,0,256,1.707,256,4.267v12.8h243.2c2.56,0,4.267,1.707,4.267,4.267v34.133c0,2.56-1.707,4.267-4.267,4.267h-12.8v200.533
	C486.4,262.827,484.693,264.533,482.133,264.533z M371.2,247.467c-36.693,0-46.933-21.333-54.613-36.693
	c0-0.853-7.68-16.213-8.533-32.427c-5.12-1.707-8.533-6.827-8.533-11.947v-17.067c0-5.973,3.413-10.24,8.533-11.947v-5.12
	c0-25.6,21.333-46.933,46.933-46.933h34.133c25.6,0,46.933,21.333,46.933,46.933v5.12c5.12,1.707,8.533,6.827,8.533,11.947V166.4
	c0,5.973-3.413,10.24-8.533,11.947c-0.853,16.213-8.533,31.573-8.533,32.427C418.133,226.133,407.893,247.467,371.2,247.467z
	 M354.133,93.867c-21.333,0-38.4,17.067-38.4,38.4v8.533c0,2.56-1.707,4.267-4.267,4.267s-4.267,1.707-4.267,4.267V166.4
	c0,2.56,1.707,4.267,4.267,4.267s4.267,1.707,4.267,4.267c0,16.213,7.68,32.427,7.68,32.427
	c9.387,18.773,17.92,31.573,47.787,31.573s38.4-12.8,47.787-31.573c0,0,7.68-16.213,7.68-32.427c0-2.56,1.707-4.267,4.267-4.267
	s4.267-1.707,4.267-4.267v-17.067c0-2.56-1.707-4.267-4.267-4.267s-4.267-1.707-4.267-4.267v-8.533c0-21.333-17.067-38.4-38.4-38.4
	H354.133z M260.267,230.4h-85.333c-2.56,0-4.267-1.707-4.267-4.267s1.707-4.267,4.267-4.267h85.333c2.56,0,4.267,1.707,4.267,4.267
	S262.827,230.4,260.267,230.4z M132.267,230.4h-25.6c-2.56,0-4.267-1.707-4.267-4.267s1.707-4.267,4.267-4.267h25.6
	c2.56,0,4.267,1.707,4.267,4.267S134.827,230.4,132.267,230.4z M260.267,179.2h-153.6c-2.56,0-4.267-1.707-4.267-4.267
	c0-2.56,1.707-4.267,4.267-4.267h153.6c2.56,0,4.267,1.707,4.267,4.267C264.533,177.493,262.827,179.2,260.267,179.2z
	 M396.8,162.133h-8.533c-2.56,0-4.267-1.707-4.267-4.267c0-2.56,1.707-4.267,4.267-4.267h8.533c2.56,0,4.267,1.707,4.267,4.267
	C401.067,160.427,399.36,162.133,396.8,162.133z M354.133,162.133H345.6c-2.56,0-4.267-1.707-4.267-4.267
	c0-2.56,1.707-4.267,4.267-4.267h8.533c2.56,0,4.267,1.707,4.267,4.267C358.4,160.427,356.693,162.133,354.133,162.133z M243.2,128
	h-34.133c-2.56,0-4.267-1.707-4.267-4.267c0-2.56,1.707-4.267,4.267-4.267H243.2c2.56,0,4.267,1.707,4.267,4.267
	C247.467,126.293,245.76,128,243.2,128z M174.933,128h-68.267c-2.56,0-4.267-1.707-4.267-4.267c0-2.56,1.707-4.267,4.267-4.267
	h68.267c2.56,0,4.267,1.707,4.267,4.267C179.2,126.293,177.493,128,174.933,128z"/>
</svg>